<svg width="173" height="52" viewBox="0 0 173 52" fill="none" xmlns="http://www.w3.org/2000/svg">
<rect width="173" height="52" rx="10" fill="#31384B"/>
<path d="M35.16 14.76L35.14 18.08L36.52 18.26C36.52 18.8067 36.3667 19.3867 36.06 20H31.2L31.02 18.9C31.94 18.54 32.5 18.3467 32.7 18.32C32.7 17.5333 32.6867 16.3533 32.66 14.78L28.88 7.76L27.12 7.22L27.28 6H32.48C32.72 6.44 32.84 6.96667 32.84 7.58C32.5333 7.63333 32.14 7.69333 31.66 7.76L33.8 12.58H33.98L36.26 7.74C35.8067 7.64667 35.2533 7.47333 34.6 7.22L34.74 6H39.96C40.1867 6.33333 40.3067 6.86 40.32 7.58C39.8 7.68667 39.28 7.76 38.76 7.8L35.16 14.76ZM46.4547 11.2C45.9747 11.2 45.428 11.32 44.8147 11.56C44.6414 11.8267 44.4747 12.3 44.3147 12.98C44.168 13.6467 44.0947 14.32 44.0947 15C44.0947 16.2533 44.2814 17.1467 44.6547 17.68C45.028 18.2 45.628 18.46 46.4547 18.46C47.2947 18.46 47.9014 18.2 48.2747 17.68C48.648 17.1467 48.8347 16.24 48.8347 14.96C48.8347 13.6667 48.6414 12.72 48.2547 12.12C47.8814 11.5067 47.2814 11.2 46.4547 11.2ZM46.4547 9.6C48.0147 9.6 49.268 10.08 50.2147 11.04C51.1747 11.9867 51.6547 13.3133 51.6547 15.02C51.6547 16.7133 51.1814 18.0067 50.2347 18.9C49.288 19.7933 48.028 20.24 46.4547 20.24C44.8814 20.24 43.6214 19.7933 42.6747 18.9C41.7414 18.0067 41.2747 16.7133 41.2747 15.02C41.2747 13.3133 41.748 11.9867 42.6947 11.04C43.6414 10.08 44.8947 9.6 46.4547 9.6ZM61.4964 9.76C61.7497 9.76 61.9097 9.76667 61.9764 9.78C61.9764 10.46 61.8631 11.0467 61.6364 11.54C61.5564 14.4733 61.4897 16.64 61.4364 18.04C62.0364 18.0933 62.5631 18.1933 63.0164 18.34L62.9764 19.74C62.1631 19.9933 61.4631 20.12 60.8764 20.12C60.2897 20.12 59.8897 20.1067 59.6764 20.08C59.5164 19.76 59.3831 19.44 59.2764 19.12C58.1697 19.8667 57.3697 20.24 56.8764 20.24C54.4897 20.24 53.2964 19.0333 53.2964 16.62C53.2964 15.9667 53.3497 14.36 53.4564 11.8C52.7497 11.8 52.1031 11.7067 51.5164 11.52C51.5164 11.1867 51.5631 10.7067 51.6564 10.08C52.4431 9.86667 53.7897 9.76 55.6964 9.76C55.9497 9.76 56.1097 9.76667 56.1764 9.78C56.1764 10.4333 56.0631 11.04 55.8364 11.6V15.64C55.8364 16.4933 55.9231 17.12 56.0964 17.52C56.2831 17.9067 56.6697 18.1 57.2564 18.1C57.8564 18.1 58.4697 17.8933 59.0964 17.48L58.9764 11.8C58.3897 11.7733 57.8364 11.68 57.3164 11.52C57.3164 11.1867 57.3631 10.7067 57.4564 10.08C58.2431 9.86667 59.5897 9.76 61.4964 9.76ZM69.7309 11.76C69.7043 11.6933 69.5709 11.66 69.3309 11.66C69.0909 11.66 68.6776 11.84 68.0909 12.2C68.0376 14.8133 68.0043 16.7733 67.9909 18.08L69.5509 18.28C69.5509 18.8533 69.3976 19.4267 69.0909 20H64.1109L63.9309 18.9C64.7576 18.5933 65.3576 18.3933 65.7309 18.3L65.5109 11.82C64.8176 11.7667 64.2376 11.6667 63.7709 11.52L63.9109 10.08C64.2709 9.92 65.5709 9.81333 67.8109 9.76C67.9309 9.88 67.9909 10.1133 67.9909 10.46C69.1643 9.88667 69.9043 9.6 70.2109 9.6C70.5309 9.6 70.9176 9.68 71.3709 9.84C71.8376 9.98667 72.1909 10.1467 72.4309 10.32V10.66C72.4309 11.7533 72.2976 12.7667 72.0309 13.7C71.8043 13.7933 71.5043 13.84 71.1309 13.84C70.7576 13.84 70.4109 13.82 70.0909 13.78C70.0509 13.6067 69.9309 12.9333 69.7309 11.76ZM78.5153 6C80.2086 6 81.4686 6.29333 82.2953 6.88C83.122 7.46667 83.5353 8.53333 83.5353 10.08C83.5353 11.3733 83.1353 12.4533 82.3353 13.32C81.5353 14.1733 80.2553 14.6 78.4953 14.6C77.922 14.6 77.4686 14.5933 77.1353 14.58L77.0953 18.1L78.5553 18.26C78.5553 18.8467 78.402 19.4267 78.0953 20H73.1553L72.9753 18.9C73.6686 18.62 74.2286 18.4267 74.6553 18.32C74.6553 18.28 74.5953 14.7533 74.4753 7.74C74.262 7.68667 73.7086 7.51333 72.8153 7.22L72.9753 6H78.5153ZM78.0753 12.7C78.9686 12.6867 79.662 12.44 80.1553 11.96C80.6486 11.48 80.8953 10.86 80.8953 10.1C80.8953 9.34 80.6753 8.8 80.2353 8.48C79.8086 8.14667 79.1353 7.98 78.2153 7.98C77.8553 7.98 77.5153 7.98667 77.1953 8C77.1686 10.1067 77.1553 11.68 77.1553 12.72L78.0753 12.7ZM87.8839 20.24C86.7506 20.24 85.8706 20.0067 85.2439 19.54C84.6306 19.0733 84.3239 18.2867 84.3239 17.18C84.3239 16.1267 84.6906 15.2667 85.4239 14.6C85.8506 14.2133 86.4439 13.9867 87.2039 13.92C87.9639 13.8533 89.0106 13.82 90.3439 13.82V13.5C90.3439 12.6867 90.2106 12.0933 89.9439 11.72C89.6906 11.3333 89.2372 11.14 88.5839 11.14C88.2506 11.14 87.9506 11.2067 87.6839 11.34L87.2039 13.08L85.7239 13.04C85.3906 12.5333 85.2106 11.7267 85.1839 10.62C85.4506 10.4867 86.0772 10.2867 87.0639 10.02C88.0506 9.74 88.6839 9.6 88.9639 9.6C90.4039 9.6 91.4506 9.9 92.1039 10.5C92.7572 11.0867 93.0839 12.0267 93.0839 13.32C93.0839 14.6 93.0239 16.2933 92.9039 18.4C93.6639 18.4667 94.2506 18.58 94.6639 18.74C94.6772 18.9 94.6839 19.0933 94.6839 19.32L94.6639 19.76C93.7039 20.08 92.7372 20.24 91.7639 20.24C91.5106 20.24 91.3239 20.2333 91.2039 20.22C91.0039 19.82 90.8839 19.34 90.8439 18.78H90.7439C90.4906 19.02 90.0439 19.3267 89.4039 19.7C88.7772 20.06 88.2706 20.24 87.8839 20.24ZM86.8839 17.3C86.8839 17.74 87.0172 18.0667 87.2839 18.28C87.5639 18.48 87.8772 18.58 88.2239 18.58C88.5706 18.58 88.9839 18.4267 89.4639 18.12C89.9439 17.8 90.3306 17.5133 90.6239 17.26L90.5239 15.42C89.4706 15.4733 88.6772 15.5733 88.1439 15.72C87.3039 15.8933 86.8839 16.42 86.8839 17.3ZM100.805 11.76C100.778 11.6933 100.645 11.66 100.405 11.66C100.165 11.66 99.7518 11.84 99.1652 12.2C99.1118 14.8133 99.0785 16.7733 99.0652 18.08L100.625 18.28C100.625 18.8533 100.472 19.4267 100.165 20H95.1852L95.0052 18.9C95.8318 18.5933 96.4318 18.3933 96.8052 18.3L96.5852 11.82C95.8918 11.7667 95.3118 11.6667 94.8452 11.52L94.9852 10.08C95.3452 9.92 96.6452 9.81333 98.8852 9.76C99.0052 9.88 99.0652 10.1133 99.0652 10.46C100.238 9.88667 100.978 9.6 101.285 9.6C101.605 9.6 101.992 9.68 102.445 9.84C102.912 9.98667 103.265 10.1467 103.505 10.32V10.66C103.505 11.7533 103.372 12.7667 103.105 13.7C102.878 13.7933 102.578 13.84 102.205 13.84C101.832 13.84 101.485 13.82 101.165 13.78C101.125 13.6067 101.005 12.9333 100.805 11.76ZM106.31 20.24L105.87 20.22C105.79 20.0733 105.683 19.8 105.55 19.4C105.416 19 105.343 18.7 105.33 18.5C105.263 17.18 105.19 14.8933 105.11 11.64H103.71L103.77 10.5C104.076 10.2867 104.443 10.0933 104.87 9.92L106.49 7.36C107.01 7.41333 107.416 7.55333 107.71 7.78L107.69 9.68C108.53 9.70667 109.31 9.78667 110.03 9.92C110.03 10.4533 109.863 11.0267 109.53 11.64H107.67C107.616 14.44 107.583 16.54 107.57 17.94C108.103 17.9933 108.83 18.1467 109.75 18.4L109.73 19.44C109.503 19.5867 108.996 19.76 108.21 19.96C107.436 20.1467 106.803 20.24 106.31 20.24ZM117.503 9.6C118.836 9.6 119.803 9.92667 120.403 10.58C121.003 11.2333 121.303 12.1467 121.303 13.32C121.303 14.4933 121.236 16.08 121.103 18.08L122.683 18.26C122.683 18.8067 122.529 19.3867 122.223 20H117.243L117.063 18.9C117.689 18.6467 118.269 18.4467 118.803 18.3C118.763 16.7667 118.723 15.48 118.683 14.44C118.643 13.3867 118.543 12.6733 118.383 12.3C118.223 11.9267 117.869 11.74 117.323 11.74C116.496 11.74 115.756 11.8867 115.103 12.18C115.089 12.7533 115.049 13.6933 114.983 15C114.929 16.2933 114.896 17.32 114.883 18.08L116.443 18.26C116.443 18.8067 116.289 19.3867 115.983 20H111.003L110.823 18.9C111.489 18.6467 112.089 18.4467 112.623 18.3C112.609 17.5 112.563 16.3933 112.483 14.98C112.416 13.5667 112.376 12.52 112.363 11.84C111.869 11.7867 111.343 11.6867 110.783 11.54L110.883 10.1C111.816 9.84667 112.869 9.72 114.043 9.72C114.189 9.81333 114.389 10.1 114.643 10.58C115.096 10.3533 115.649 10.1333 116.303 9.92C116.956 9.70667 117.356 9.6 117.503 9.6ZM128.487 18.28C128.94 18.28 129.86 17.9667 131.247 17.34C131.54 17.7667 131.76 18.26 131.907 18.82C131.174 19.2733 130.454 19.6267 129.747 19.88C129.054 20.12 128.56 20.24 128.267 20.24C126.654 20.24 125.427 19.7933 124.587 18.9C123.76 18.0067 123.347 16.74 123.347 15.1C123.347 13.4467 123.76 12.12 124.587 11.12C125.414 10.1067 126.64 9.6 128.267 9.6C129.56 9.6 130.547 10.02 131.227 10.86C131.907 11.7 132.247 12.7933 132.247 14.14C132.247 14.42 132.087 14.74 131.767 15.1L126.007 15C126.034 16.0667 126.234 16.88 126.607 17.44C126.98 18 127.607 18.28 128.487 18.28ZM128.087 11.26C127.58 11.26 127.107 11.36 126.667 11.56C126.36 12.2 126.167 12.7933 126.087 13.34C127.127 13.3 128.307 13.2733 129.627 13.26C129.56 11.9267 129.047 11.26 128.087 11.26ZM139.301 11.76C139.275 11.6933 139.141 11.66 138.901 11.66C138.661 11.66 138.248 11.84 137.661 12.2C137.608 14.8133 137.575 16.7733 137.561 18.08L139.121 18.28C139.121 18.8533 138.968 19.4267 138.661 20H133.681L133.501 18.9C134.328 18.5933 134.928 18.3933 135.301 18.3L135.081 11.82C134.388 11.7667 133.808 11.6667 133.341 11.52L133.481 10.08C133.841 9.92 135.141 9.81333 137.381 9.76C137.501 9.88 137.561 10.1133 137.561 10.46C138.735 9.88667 139.475 9.6 139.781 9.6C140.101 9.6 140.488 9.68 140.941 9.84C141.408 9.98667 141.761 10.1467 142.001 10.32V10.66C142.001 11.7533 141.868 12.7667 141.601 13.7C141.375 13.7933 141.075 13.84 140.701 13.84C140.328 13.84 139.981 13.82 139.661 13.78C139.621 13.6067 139.501 12.9333 139.301 11.76ZM36.54 36.52L35.92 36.5L35.34 34.1C34.5667 33.9667 33.9867 33.9 33.6 33.9C32.84 33.9 31.9867 34.0533 31.04 34.36C30.76 34.88 30.54 35.5467 30.38 36.36C30.22 37.1733 30.14 37.94 30.14 38.66C30.14 42.34 31.2 44.18 33.32 44.18C34.2267 44.18 34.9467 44.0467 35.48 43.78L35.9 41.34C36.74 41.34 37.38 41.3867 37.82 41.48C38.0333 42.9333 38.14 44.1133 38.14 45.02C37.82 45.26 37.1733 45.5267 36.2 45.82C35.24 46.1133 34.2933 46.26 33.36 46.26C29.3867 46.26 27.4 43.8067 27.4 38.9C27.4 36.5667 27.88 34.7933 28.84 33.58C29.8133 32.3667 31.36 31.76 33.48 31.76C34.5333 31.76 35.4667 31.9133 36.28 32.22C37 32.4867 37.6133 32.78 38.12 33.1C38.12 34.0067 38.02 35.1 37.82 36.38C37.4467 36.4733 37.02 36.52 36.54 36.52ZM43.3764 31.14C43.6297 31.14 43.7897 31.1467 43.8564 31.16C43.8564 31.8533 43.7697 32.46 43.5964 32.98C43.5831 33.8067 43.5631 34.9733 43.5364 36.48C43.4831 39.7867 43.4431 42.32 43.4164 44.08L44.9764 44.26C44.9764 44.8067 44.8231 45.3867 44.5164 46H39.5364L39.3564 44.9C40.1831 44.5933 40.7831 44.3933 41.1564 44.3L40.7764 33.2C40.1497 33.1333 39.6231 33.0333 39.1964 32.9C39.1964 32.4067 39.2431 31.9267 39.3364 31.46C40.1231 31.2467 41.4697 31.14 43.3764 31.14ZM49.4948 35.76C49.7482 35.76 49.9082 35.7667 49.9748 35.78C49.9748 36.4333 49.8615 37.04 49.6348 37.6C49.5815 40.48 49.5482 42.64 49.5348 44.08L51.0948 44.26C51.0948 44.8067 50.9415 45.3867 50.6348 46H45.6548L45.4748 44.9C46.3015 44.5933 46.9015 44.3933 47.2748 44.3L47.0548 37.82C46.2682 37.74 45.6882 37.64 45.3148 37.52C45.3148 37.1867 45.3615 36.7067 45.4548 36.08C46.2415 35.8667 47.5882 35.76 49.4948 35.76ZM49.4948 31.98C49.6148 32.58 49.6748 33.04 49.6748 33.36C49.6748 33.6667 49.6482 34.0133 49.5948 34.4C49.0615 34.52 48.6082 34.58 48.2348 34.58C47.8748 34.58 47.4348 34.56 46.9148 34.52C46.7948 33.92 46.7348 33.4667 46.7348 33.16C46.7348 32.84 46.7615 32.4867 46.8148 32.1C47.3482 31.98 47.7948 31.92 48.1548 31.92C48.5282 31.92 48.9748 31.94 49.4948 31.98ZM56.8072 44.28C57.2605 44.28 58.1805 43.9667 59.5672 43.34C59.8605 43.7667 60.0805 44.26 60.2272 44.82C59.4939 45.2733 58.7739 45.6267 58.0672 45.88C57.3739 46.12 56.8805 46.24 56.5872 46.24C54.9739 46.24 53.7472 45.7933 52.9072 44.9C52.0805 44.0067 51.6672 42.74 51.6672 41.1C51.6672 39.4467 52.0805 38.12 52.9072 37.12C53.7339 36.1067 54.9605 35.6 56.5872 35.6C57.8805 35.6 58.8672 36.02 59.5472 36.86C60.2272 37.7 60.5672 38.7933 60.5672 40.14C60.5672 40.42 60.4072 40.74 60.0872 41.1L54.3272 41C54.3539 42.0667 54.5539 42.88 54.9272 43.44C55.3005 44 55.9272 44.28 56.8072 44.28ZM56.4072 37.26C55.9005 37.26 55.4272 37.36 54.9872 37.56C54.6805 38.2 54.4872 38.7933 54.4072 39.34C55.4472 39.3 56.6272 39.2733 57.9472 39.26C57.8805 37.9267 57.3672 37.26 56.4072 37.26ZM68.3816 35.6C69.7149 35.6 70.6816 35.9267 71.2816 36.58C71.8816 37.2333 72.1816 38.1467 72.1816 39.32C72.1816 40.4933 72.1149 42.08 71.9816 44.08L73.5616 44.26C73.5616 44.8067 73.4082 45.3867 73.1016 46H68.1216L67.9416 44.9C68.5682 44.6467 69.1482 44.4467 69.6816 44.3C69.6416 42.7667 69.6016 41.48 69.5616 40.44C69.5216 39.3867 69.4216 38.6733 69.2616 38.3C69.1016 37.9267 68.7482 37.74 68.2016 37.74C67.3749 37.74 66.6349 37.8867 65.9816 38.18C65.9682 38.7533 65.9282 39.6933 65.8616 41C65.8082 42.2933 65.7749 43.32 65.7616 44.08L67.3216 44.26C67.3216 44.8067 67.1682 45.3867 66.8616 46H61.8816L61.7016 44.9C62.3682 44.6467 62.9682 44.4467 63.5016 44.3C63.4882 43.5 63.4416 42.3933 63.3616 40.98C63.2949 39.5667 63.2549 38.52 63.2416 37.84C62.7482 37.7867 62.2216 37.6867 61.6616 37.54L61.7616 36.1C62.6949 35.8467 63.7482 35.72 64.9216 35.72C65.0682 35.8133 65.2682 36.1 65.5216 36.58C65.9749 36.3533 66.5282 36.1333 67.1816 35.92C67.8349 35.7067 68.2349 35.6 68.3816 35.6ZM76.4658 46.24L76.0258 46.22C75.9458 46.0733 75.8391 45.8 75.7058 45.4C75.5724 45 75.4991 44.7 75.4858 44.5C75.4191 43.18 75.3458 40.8933 75.2658 37.64H73.8658L73.9258 36.5C74.2324 36.2867 74.5991 36.0933 75.0258 35.92L76.6458 33.36C77.1658 33.4133 77.5724 33.5533 77.8658 33.78L77.8458 35.68C78.6858 35.7067 79.4658 35.7867 80.1858 35.92C80.1858 36.4533 80.0191 37.0267 79.6858 37.64H77.8258C77.7724 40.44 77.7391 42.54 77.7258 43.94C78.2591 43.9933 78.9858 44.1467 79.9058 44.4L79.8858 45.44C79.6591 45.5867 79.1524 45.76 78.3658 45.96C77.5924 46.1467 76.9591 46.24 76.4658 46.24ZM88.3589 36.46L88.3789 37.08C88.3789 38.12 88.2989 38.8 88.1389 39.12C87.6989 39.28 87.0856 39.36 86.2989 39.36L85.6589 37.34C85.4856 37.2733 85.2456 37.24 84.9389 37.24C84.6322 37.24 84.3789 37.3333 84.1789 37.52C83.9922 37.7067 83.8989 37.9267 83.8989 38.18C83.8989 38.4333 83.9989 38.6667 84.1989 38.88C84.3989 39.08 84.6056 39.24 84.8189 39.36C85.0322 39.48 85.3389 39.64 85.7389 39.84C86.1522 40.0267 86.4589 40.1733 86.6589 40.28C86.8722 40.3867 87.1389 40.5467 87.4589 40.76C87.7922 40.9733 88.0456 41.1733 88.2189 41.36C88.6456 41.8667 88.8589 42.42 88.8589 43.02C88.8589 44.0467 88.4656 44.84 87.6789 45.4C86.9056 45.96 85.9522 46.24 84.8189 46.24C84.2189 46.24 83.5589 46.1333 82.8389 45.92C82.1322 45.7067 81.5322 45.42 81.0389 45.06C81.0389 44.1 81.1322 43.2067 81.3189 42.38C81.8522 42.3133 82.2856 42.28 82.6189 42.28C82.9522 42.28 83.1789 42.2867 83.2989 42.3L83.5389 44.24C83.8722 44.36 84.2722 44.42 84.7389 44.42C85.2056 44.42 85.5722 44.3267 85.8389 44.14C86.1189 43.9533 86.2589 43.6933 86.2589 43.36C86.2589 43.0133 86.1056 42.7267 85.7989 42.5C85.4922 42.2733 85.0722 42.04 84.5389 41.8C84.0056 41.5467 83.5922 41.34 83.2989 41.18C83.0056 41.0067 82.6922 40.7867 82.3589 40.52C81.6789 40 81.3389 39.36 81.3389 38.6C81.3389 37.6533 81.6656 36.92 82.3189 36.4C82.9856 35.8667 83.8789 35.6 84.9989 35.6C86.1189 35.6 87.2389 35.8867 88.3589 36.46ZM103.957 42.36C104.277 42.3067 104.517 42.28 104.677 42.28C104.851 42.28 105.217 42.3267 105.777 42.42C105.831 42.5267 105.904 42.8667 105.997 43.44C106.104 44.0133 106.157 44.48 106.157 44.84C106.157 45.1867 106.117 45.5733 106.037 46H96.3372L96.1572 44.9C96.8105 44.6333 97.3705 44.44 97.8372 44.32C97.8372 44.28 97.7772 40.7533 97.6572 33.74L95.9972 33.22L96.1572 32H101.357C101.344 32 101.344 32.0133 101.357 32.04C101.384 32.0667 101.411 32.1267 101.437 32.22C101.477 32.3 101.517 32.4 101.557 32.52C101.637 32.7333 101.691 33.0867 101.717 33.58C101.037 33.6867 100.591 33.7533 100.377 33.78C100.324 38.38 100.291 41.8133 100.277 44.08H103.517L103.957 42.36ZM113.053 44.12C115.266 44.12 116.373 42.42 116.373 39.02C116.373 35.62 115.266 33.92 113.053 33.92C112.093 33.92 111.253 34.0667 110.533 34.36C109.92 35.64 109.613 37.1267 109.613 38.82C109.613 40.5 109.866 41.8067 110.373 42.74C110.88 43.66 111.773 44.12 113.053 44.12ZM113.053 31.76C115.28 31.76 116.846 32.3467 117.753 33.52C118.66 34.68 119.113 36.46 119.113 38.86C119.113 40.3667 118.92 41.6533 118.533 42.72C118.146 43.7867 117.493 44.64 116.573 45.28C115.653 45.92 114.48 46.24 113.053 46.24C110.88 46.24 109.3 45.6333 108.313 44.42C107.34 43.2067 106.853 41.44 106.853 39.12C106.853 34.2133 108.92 31.76 113.053 31.76ZM125.762 46.26C123.949 46.26 122.502 45.6467 121.422 44.42C120.342 43.1933 119.802 41.38 119.802 38.98C119.802 36.58 120.269 34.78 121.202 33.58C122.149 32.3667 123.676 31.76 125.782 31.76C126.676 31.76 127.529 31.88 128.342 32.12C129.169 32.36 129.729 32.5667 130.022 32.74C130.316 32.9 130.549 33.0467 130.722 33.18C130.722 34.0333 130.616 34.98 130.402 36.02C130.056 36.18 129.709 36.26 129.362 36.26C129.029 36.26 128.742 36.2467 128.502 36.22L128.082 34.14C127.496 33.98 126.922 33.9 126.362 33.9C125.576 33.9 124.596 34.06 123.422 34.38C122.836 35.5533 122.542 36.98 122.542 38.66C122.542 42.34 123.622 44.18 125.782 44.18C126.862 44.18 127.722 44 128.362 43.64C128.389 42.9467 128.416 41.88 128.442 40.44L126.762 39.92L126.922 38.7H131.762C131.922 38.9933 132.042 39.52 132.122 40.28C131.669 40.3733 131.182 40.44 130.662 40.48C130.742 42.2 130.782 43.68 130.782 44.92C130.396 45.1733 129.696 45.46 128.682 45.78C127.669 46.1 126.696 46.26 125.762 46.26ZM139.108 44.12C141.321 44.12 142.428 42.42 142.428 39.02C142.428 35.62 141.321 33.92 139.108 33.92C138.148 33.92 137.308 34.0667 136.588 34.36C135.974 35.64 135.668 37.1267 135.668 38.82C135.668 40.5 135.921 41.8067 136.428 42.74C136.934 43.66 137.828 44.12 139.108 44.12ZM139.108 31.76C141.334 31.76 142.901 32.3467 143.808 33.52C144.714 34.68 145.168 36.46 145.168 38.86C145.168 40.3667 144.974 41.6533 144.588 42.72C144.201 43.7867 143.548 44.64 142.628 45.28C141.708 45.92 140.534 46.24 139.108 46.24C136.934 46.24 135.354 45.6333 134.368 44.42C133.394 43.2067 132.908 41.44 132.908 39.12C132.908 34.2133 134.974 31.76 139.108 31.76Z" fill="url(#paint0_linear_604_326)"/>
<defs>
<linearGradient id="paint0_linear_604_326" x1="86.5" y1="0" x2="86.5" y2="52" gradientUnits="userSpaceOnUse">
<stop stop-color="#BC3CD8"/>
<stop offset="1" stop-color="#FFC700"/>
</linearGradient>
</defs>
</svg>
