<svg width="96" height="48" viewBox="0 0 96 48" fill="none" xmlns="http://www.w3.org/2000/svg">
<path d="M19.528 25.808L19.512 28.464L20.616 28.608C20.616 29.0453 20.4933 29.5093 20.248 30H16.36L16.216 29.12C16.952 28.832 17.4 28.6773 17.56 28.656C17.56 28.0267 17.5493 27.0827 17.528 25.824L14.504 20.208L13.096 19.776L13.224 18.8H17.384C17.576 19.152 17.672 19.5733 17.672 20.064C17.4267 20.1067 17.112 20.1547 16.728 20.208L18.44 24.064H18.584L20.408 20.192C20.0453 20.1173 19.6027 19.9787 19.08 19.776L19.192 18.8H23.368C23.5493 19.0667 23.6453 19.488 23.656 20.064C23.24 20.1493 22.824 20.208 22.408 20.24L19.528 25.808ZM28.5638 22.96C28.1798 22.96 27.7424 23.056 27.2518 23.248C27.1131 23.4613 26.9798 23.84 26.8518 24.384C26.7344 24.9173 26.6758 25.456 26.6758 26C26.6758 27.0027 26.8251 27.7173 27.1238 28.144C27.4224 28.56 27.9024 28.768 28.5638 28.768C29.2358 28.768 29.7211 28.56 30.0198 28.144C30.3184 27.7173 30.4678 26.992 30.4678 25.968C30.4678 24.9333 30.3131 24.176 30.0038 23.696C29.7051 23.2053 29.2251 22.96 28.5638 22.96ZM28.5638 21.68C29.8118 21.68 30.8144 22.064 31.5718 22.832C32.3398 23.5893 32.7238 24.6507 32.7238 26.016C32.7238 27.3707 32.3451 28.4053 31.5878 29.12C30.8304 29.8347 29.8224 30.192 28.5638 30.192C27.3051 30.192 26.2971 29.8347 25.5398 29.12C24.7931 28.4053 24.4198 27.3707 24.4198 26.016C24.4198 24.6507 24.7984 23.5893 25.5558 22.832C26.3131 22.064 27.3158 21.68 28.5638 21.68ZM40.5971 21.808C40.7998 21.808 40.9278 21.8133 40.9811 21.824C40.9811 22.368 40.8905 22.8373 40.7091 23.232C40.6451 25.5787 40.5918 27.312 40.5491 28.432C41.0291 28.4747 41.4505 28.5547 41.8131 28.672L41.7811 29.792C41.1305 29.9947 40.5705 30.096 40.1011 30.096C39.6318 30.096 39.3118 30.0853 39.1411 30.064C39.0131 29.808 38.9065 29.552 38.8211 29.296C37.9358 29.8933 37.2958 30.192 36.9011 30.192C34.9918 30.192 34.0371 29.2267 34.0371 27.296C34.0371 26.7733 34.0798 25.488 34.1651 23.44C33.5998 23.44 33.0825 23.3653 32.6131 23.216C32.6131 22.9493 32.6505 22.5653 32.7251 22.064C33.3545 21.8933 34.4318 21.808 35.9571 21.808C36.1598 21.808 36.2878 21.8133 36.3411 21.824C36.3411 22.3467 36.2505 22.832 36.0691 23.28V26.512C36.0691 27.1947 36.1385 27.696 36.2771 28.016C36.4265 28.3253 36.7358 28.48 37.2051 28.48C37.6851 28.48 38.1758 28.3147 38.6771 27.984L38.5811 23.44C38.1118 23.4187 37.6691 23.344 37.2531 23.216C37.2531 22.9493 37.2905 22.5653 37.3651 22.064C37.9945 21.8933 39.0718 21.808 40.5971 21.808ZM49.4408 27.088C49.6968 27.0453 49.8888 27.024 50.0168 27.024C50.1554 27.024 50.4488 27.0613 50.8968 27.136C50.9394 27.2213 50.9981 27.4933 51.0728 27.952C51.1581 28.4107 51.2008 28.784 51.2008 29.072C51.2008 29.3493 51.1688 29.6587 51.1048 30H43.3448L43.2008 29.12C43.7234 28.9067 44.1714 28.752 44.5448 28.656C44.5448 28.624 44.4968 25.8027 44.4008 20.192L43.0728 19.776L43.2008 18.8H47.3608C47.3501 18.8 47.3501 18.8107 47.3608 18.832C47.3821 18.8533 47.4034 18.9013 47.4248 18.976C47.4568 19.04 47.4888 19.12 47.5208 19.216C47.5848 19.3867 47.6274 19.6693 47.6488 20.064C47.1048 20.1493 46.7474 20.2027 46.5768 20.224C46.5341 23.904 46.5074 26.6507 46.4968 28.464H49.0888L49.4408 27.088ZM56.7175 28.496C58.4882 28.496 59.3735 27.136 59.3735 24.416C59.3735 21.696 58.4882 20.336 56.7175 20.336C55.9495 20.336 55.2775 20.4533 54.7015 20.688C54.2108 21.712 53.9655 22.9013 53.9655 24.256C53.9655 25.6 54.1682 26.6453 54.5735 27.392C54.9788 28.128 55.6935 28.496 56.7175 28.496ZM56.7175 18.608C58.4988 18.608 59.7522 19.0773 60.4775 20.016C61.2028 20.944 61.5655 22.368 61.5655 24.288C61.5655 25.4933 61.4108 26.5227 61.1015 27.376C60.7922 28.2293 60.2695 28.912 59.5335 29.424C58.7975 29.936 57.8588 30.192 56.7175 30.192C54.9788 30.192 53.7148 29.7067 52.9255 28.736C52.1468 27.7653 51.7575 26.352 51.7575 24.496C51.7575 20.5707 53.4108 18.608 56.7175 18.608ZM66.8849 30.208C65.4342 30.208 64.2769 29.7173 63.4129 28.736C62.5489 27.7547 62.1169 26.304 62.1169 24.384C62.1169 22.464 62.4902 21.024 63.2369 20.064C63.9942 19.0933 65.2155 18.608 66.9009 18.608C67.6155 18.608 68.2982 18.704 68.9489 18.896C69.6102 19.088 70.0582 19.2533 70.2929 19.392C70.5275 19.52 70.7142 19.6373 70.8529 19.744C70.8529 20.4267 70.7675 21.184 70.5969 22.016C70.3195 22.144 70.0422 22.208 69.7649 22.208C69.4982 22.208 69.2689 22.1973 69.0769 22.176L68.7409 20.512C68.2715 20.384 67.8129 20.32 67.3649 20.32C66.7355 20.32 65.9515 20.448 65.0129 20.704C64.5435 21.6427 64.3089 22.784 64.3089 24.128C64.3089 27.072 65.1729 28.544 66.9009 28.544C67.7649 28.544 68.4529 28.4 68.9649 28.112C68.9862 27.5573 69.0075 26.704 69.0289 25.552L67.6849 25.136L67.8129 24.16H71.6849C71.8129 24.3947 71.9089 24.816 71.9729 25.424C71.6102 25.4987 71.2209 25.552 70.8049 25.584C70.8689 26.96 70.9009 28.144 70.9009 29.136C70.5915 29.3387 70.0315 29.568 69.2209 29.824C68.4102 30.08 67.6315 30.208 66.8849 30.208ZM77.5613 28.496C79.3319 28.496 80.2173 27.136 80.2173 24.416C80.2173 21.696 79.3319 20.336 77.5613 20.336C76.7933 20.336 76.1213 20.4533 75.5453 20.688C75.0546 21.712 74.8093 22.9013 74.8093 24.256C74.8093 25.6 75.0119 26.6453 75.4173 27.392C75.8226 28.128 76.5373 28.496 77.5613 28.496ZM77.5613 18.608C79.3426 18.608 80.5959 19.0773 81.3212 20.016C82.0466 20.944 82.4093 22.368 82.4093 24.288C82.4093 25.4933 82.2546 26.5227 81.9453 27.376C81.6359 28.2293 81.1133 28.912 80.3773 29.424C79.6413 29.936 78.7026 30.192 77.5613 30.192C75.8226 30.192 74.5586 29.7067 73.7693 28.736C72.9906 27.7653 72.6013 26.352 72.6013 24.496C72.6013 20.5707 74.2546 18.608 77.5613 18.608Z" fill="url(#paint0_linear_605_334)"/>
<defs>
<linearGradient id="paint0_linear_605_334" x1="48" y1="14" x2="48" y2="35" gradientUnits="userSpaceOnUse">
<stop stop-color="#BC3CD8"/>
<stop offset="1" stop-color="#FFC700"/>
</linearGradient>
</defs>
</svg>
